:SAMPLES-PER-SECOND 30
:FULLY-SPECIFIED
:DEGREES
282
root  77.4269 37.9997 2.57425 -130.152 -84.142 151.188
RightUpLeg  -37.6396 -11.3607 -2.17521
RightLeg  40.1281 -6.10762 -5.77123
RightFoot  -14.5111 0.0877568 6.86915
RightToes  5.82063e-011 0 -3.6325e-017
Spine  62.7171 -2.08116 3.20353
Spine1  12.6375 2.41441 -8.14242
HEad  -57.511 -5.65475 3.74772
LeftShoulder1  12.0794 -24.8747 -36.3097
LeftArm  -35.9862 -66.222 -33.8599
LeftForeArm  -10.9155 -41.0159 -10.3839
LeftHand  -0.244104 0.0205437 5.32207
RightShoulder  6.664 17.5067 25.5614
RightArm  -36.4611 58.7485 26.2243
RightForeArm  -46.3224 46.0028 13.9581
RightHand  -0.272224 9.08418 -2.57034
LeftUpLeg  -46.0373 18.996 -19.9178
LeftLeg  24.9408 6.31289 3.53029
LeftFoot  -5.32739 -0.320901 6.71176
LeftToes  1.45487e-011 -6.19069e-011 1.65092e-011
283
root  76.8522 37.987 2.65204 -131.481 -83.92 152.963
RightUpLeg  -39.5924 -10.4186 -3.20825
RightLeg  44.0253 -5.06239 -5.52895
RightFoot  -11.3724 -0.0785077 9.22238
RightToes  5.82063e-011 0 -3.6325e-017
Spine  63.1054 -1.67784 2.84635
Spine1  13.3218 2.86867 -8.2507
HEad  -58.4676 -5.99405 3.76303
LeftShoulder1  12.0669 -24.9413 -36.1682
LeftArm  -33.9032 -66.5021 -34.705
LeftForeArm  -13.1819 -42.8632 -11.1917
LeftHand  -0.244104 0.0205437 5.32207
RightShoulder  6.86057 17.7148 26.2003
RightArm  -38.1854 57.3032 24.1755
RightForeArm  -45.4637 49.3441 15.5408
RightHand  -0.272393 9.18142 -2.56445
LeftUpLeg  -46.0732 19.6761 -20.1805
LeftLeg  25.9085 5.70573 3.35148
LeftFoot  -6.83272 -0.205896 6.27846
LeftToes  1.45487e-011 -6.19069e-011 1.65092e-011
284
root  76.3319 37.9701 2.81556 -135.914 -84.3683 157.47
RightUpLeg  -42.1879 -9.56561 -3.87617
RightLeg  49.0681 -3.95449 -5.21778
RightFoot  -6.16498 -0.476256 9.80311
RightToes  5.82063e-011 0 -3.6325e-017
Spine  63.6454 -1.96142 3.26391
Spine1  13.5983 3.03423 -8.32548
HEad  -58.5709 -5.96491 3.30003
LeftShoulder1  11.9518 -24.963 -35.7408
LeftArm  -33.0839 -66.6228 -35.341
LeftForeArm  -14.7743 -44.1233 -11.7762
LeftHand  -0.244104 0.0205437 5.32207
RightShoulder  6.77445 17.7158 25.7745
RightArm  -39.122 56.5707 24.0612
RightForeArm  -46.1718 51.8439 16.9341
RightHand  -0.280662 7.86022 -2.81838
LeftUpLeg  -45.7351 19.6804 -19.5024
LeftLeg  27.0806 5.82475 3.57207
LeftFoot  -8.48879 -0.0976248 5.96433
LeftToes  1.45487e-011 -6.19069e-011 1.65092e-011
285
root  75.8398 37.9222 3.02328 -139.467 -85.2886 160.922
RightUpLeg  -45.2003 -8.73869 -4.59069
RightLeg  54.4073 -2.49053 -4.13004
RightFoot  -0.40553 -0.763087 7.98921
RightToes  5.82063e-011 0 -3.6325e-017
Spine  64.0559 -3.07444 4.16595
Spine1  13.7952 2.7603 -8.90815
HEad  -58.5671 -5.62666 3.18302
LeftShoulder1  11.6291 -24.8511 -34.789
LeftArm  -33.3073 -66.6456 -35.6036
LeftForeArm  -14.8102 -45.6372 -12.4008
LeftHand  -0.244104 0.0205437 5.32207
RightShoulder  6.40197 17.5752 24.1494
RightArm  -39.8818 56.6054 25.6685
RightForeArm  -46.4338 53.0722 17.6867
RightHand  -0.198101 6.36894 -2.29698
LeftUpLeg  -45.1342 18.6846 -18.3102
LeftLeg  28.4308 6.47704 4.13371
LeftFoot  -10.1935 0.00671079 5.40108
LeftToes  1.45487e-011 -6.19069e-011 1.65092e-011
286
root  75.3379 37.8306 3.18468 -140.562 -85.9476 161.861
RightUpLeg  -48.0868 -7.24716 -5.73561
RightLeg  58.5351 -0.926707 -2.12482
RightFoot  3.14912 -0.718422 5.76557
RightToes  5.82063e-011 0 -3.6325e-017
Spine  64.3399 -4.13481 4.69323
Spine1  13.9237 2.41587 -9.78341
HEad  -59.1275 -5.14016 3.47783
LeftShoulder1  11.2409 -24.6915 -33.6633
LeftArm  -33.7391 -66.8411 -35.2162
LeftForeArm  -14.4888 -46.9715 -12.9613
LeftHand  -0.244104 0.0205437 5.32207
RightShoulder  6.00018 17.3579 22.4569
RightArm  -41.0135 57.1337 26.8667
RightForeArm  -45.7603 53.2032 17.7539
RightHand  -0.209754 6.51204 -2.37152
LeftUpLeg  -44.5253 17.7169 -17.4123
LeftLeg  29.9261 6.85964 4.60075
LeftFoot  -11.9467 0.0969907 4.71663
LeftToes  1.45487e-011 -6.19069e-011 1.65092e-011
287
root  74.805 37.7589 3.3006 -142.833 -86.1091 164.128
RightUpLeg  -50.678 -5.43226 -6.77905
RightLeg  59.9163 -0.145407 -0.794563
RightFoot  3.22213 -0.63763 5.16358
RightToes  5.82063e-011 0 -3.6325e-017
Spine  64.6186 -4.64445 4.90901
Spine1  13.7777 2.32305 -10.3692
HEad  -60.0811 -4.78427 3.59002
LeftShoulder1  10.9475 -24.7268 -32.5794
LeftArm  -34.4456 -67.2445 -34.2647
LeftForeArm  -14.6525 -47.6661 -13.2879
LeftHand  -0.244104 0.0205437 5.32207
RightShoulder  5.81927 17.1917 21.7766
RightArm  -42.7192 57.864 25.1561
RightForeArm  -46.2293 52.6963 17.4523
RightHand  -0.390188 7.82858 -3.78628
LeftUpLeg  -44.0295 17.4253 -16.8877
LeftLeg  31.1541 6.89566 4.83447
LeftFoot  -13.4774 0.162084 4.32085
LeftToes  1.45487e-011 -6.19069e-011 1.65092e-011
288
root  74.2508 37.7485 3.42744 -148.247 -86.1053 170.024
RightUpLeg  -53.1651 -4.5652 -6.78786
RightLeg  57.6872 -0.660601 -1.56128
RightFoot  1.14748 -0.599845 5.5469
RightToes  5.82063e-011 0 -3.6325e-017
Spine  64.6397 -4.945 5.40919
Spine1  13.4118 2.34833 -10.5171
HEad  -60.7536 -4.64303 3.31774
LeftShoulder1  10.6905 -24.9623 -31.3467
LeftArm  -36.0717 -67.7937 -33.0357
LeftForeArm  -14.6654 -47.9762 -13.4334
LeftHand  -0.244104 0.0205437 5.32207
RightShoulder  5.8 17.1568 21.7277
RightArm  -44.6972 58.4241 20.7813
RightForeArm  -48.4363 52.2764 17.2535
RightHand  -0.523221 8.03659 -4.89251
LeftUpLeg  -43.8417 17.3455 -16.4795
LeftLeg  31.8241 7.02995 5.03961
LeftFoot  -14.5935 0.202304 4.03714
LeftToes  1.45487e-011 -6.19069e-011 1.65092e-011
289
root  73.6772 37.7431 3.54427 -150.441 -86.0153 173.109
RightUpLeg  -55.4536 -5.13568 -5.51452
RightLeg  52.3079 -2.2933 -3.54607
RightFoot  -0.983123 -0.464095 5.02254
RightToes  5.82063e-011 0 -3.6325e-017
Spine  64.231 -5.22011 5.89044
Spine1  13.0116 2.17284 -10.4655
HEad  -60.7763 -4.40899 3.01787
LeftShoulder1  10.359 -25.0959 -29.9946
LeftArm  -38.6612 -68.4645 -31.3022
LeftForeArm  -14.1833 -48.1032 -13.4634
LeftHand  -0.244104 0.0205437 5.32207
RightShoulder  5.68166 17.1778 21.0876
RightArm  -46.1418 58.5316 16.9916
RightForeArm  -50.3907 52.4703 17.4161
RightHand  -0.489019 6.9046 -4.9643
LeftUpLeg  -43.9134 17.0768 -16.3834
LeftLeg  32.1449 7.28672 5.26651
LeftFoot  -15.5942 0.217902 3.35861
LeftToes  1.45487e-011 -6.19069e-011 1.65092e-011
290
root  73.0429 37.7231 3.60882 -148.286 -85.7759 171.315
RightUpLeg  -56.6525 -6.64223 -3.04113
RightLeg  45.0207 -4.25534 -4.86728
RightFoot  -2.01175 -0.309409 3.63101
RightToes  5.82063e-011 0 -3.6325e-017
Spine  64.1717 -5.41573 5.96917
Spine1  12.6093 1.84665 -10.4293
HEad  -60.386 -4.00398 2.87434
LeftShoulder1  10.0052 -25.059 -28.7843
LeftArm  -41.5763 -69.129 -28.6887
LeftForeArm  -13.9201 -47.8317 -13.3207
LeftHand  -0.244104 0.0205437 5.32207
RightShoulder  5.36188 17.0855 19.5558
RightArm  -46.8928 58.5245 15.5086
RightForeArm  -51.2553 52.8187 17.6449
RightHand  -0.57056 6.6519 -5.80682
LeftUpLeg  -43.2163 16.9503 -16.4112
LeftLeg  32.3357 7.50644 5.44885
LeftFoot  -16.7901 0.22115 2.52371
LeftToes  1.45487e-011 -6.19069e-011 1.65092e-011
291
root  72.3264 37.6522 3.62985 -142.942 -85.3983 166.558
RightUpLeg  -57.8859 -9.04499 0.712372
RightLeg  37.1227 -5.72695 -4.90554
RightFoot  -2.41098 -0.322112 3.9347
RightToes  5.82063e-011 0 -3.6325e-017
Spine  63.5455 -5.47283 5.94248
Spine1  12.4688 1.59801 -10.3153
HEad  -60.0366 -3.81612 2.61069
LeftShoulder1  9.65523 -25.0146 -27.5819
LeftArm  -44.3962 -69.7004 -25.643
LeftForeArm  -14.2032 -47.0857 -12.997
LeftHand  -0.244104 0.0205437 5.32207
RightShoulder  4.97591 16.8506 17.8423
RightArm  -47.9381 58.9759 14.338
RightForeArm  -52.2688 52.3713 17.3955
RightHand  -0.833795 7.6289 -7.78102
LeftUpLeg  -42.6688 16.5464 -16.6628
LeftLeg  32.7404 7.97876 5.8487
LeftFoot  -18.0552 0.234931 2.14668
LeftToes  1.45487e-011 -6.19069e-011 1.65092e-011
292
root  71.5049 37.5644 3.60766 -136.405 -84.8825 160.612
RightUpLeg  -58.7416 -12.2242 5.84466
RightLeg  28.9878 -5.90746 -3.83728
RightFoot  -3.18982 -0.485091 6.49094
RightToes  5.82063e-011 0 -3.6325e-017
Spine  62.7299 -5.48654 5.84547
Spine1  12.5743 1.47031 -10.255
HEad  -59.8548 -3.83078 2.31507
LeftShoulder1  9.18355 -24.9359 -25.9711
LeftArm  -47.3207 -70.1964 -22.7562
LeftForeArm  -14.4528 -46.0562 -12.5585
LeftHand  -0.244104 0.0205437 5.32207
RightShoulder  4.80489 16.642 17.2
RightArm  -49.6116 59.9683 11.3827
RightForeArm  -53.6025 51.0979 16.6762
RightHand  -0.909542 7.37263 -8.57749
LeftUpLeg  -42.0335 16.1735 -17.0473
LeftLeg  33.3572 8.47253 6.31946
LeftFoot  -19.3487 0.242404 1.81227
LeftToes  1.45487e-011 -6.19069e-011 1.65092e-011
293
root  70.583 37.4778 3.51796 -127.738 -84.4505 152.001
RightUpLeg  -58.3877 -15.4659 10.9126
RightLeg  21.5418 -4.31232 -1.8774
RightFoot  -3.25887 -0.559907 7.57042
RightToes  5.82063e-011 0 -3.6325e-017
Spine  62.2633 -5.50665 5.72222
Spine1  12.6149 1.29323 -9.96278
HEad  -59.4359 -3.91928 2.2106
LeftShoulder1  8.86749 -25.0067 -24.7325
LeftArm  -49.7015 -70.5022 -20.4047
LeftForeArm  -14.3401 -44.8407 -12.0411
LeftHand  -0.244104 0.0205437 5.32207
RightShoulder  4.69163 16.3973 16.8997
RightArm  -50.4857 60.3795 9.18311
RightForeArm  -52.9592 50.1964 16.1634
RightHand  -0.626472 5.28382 -7.1392
LeftUpLeg  -40.6098 15.9959 -17.3781
LeftLeg  33.9103 8.50078 6.4641
LeftFoot  -20.7692 0.184128 0.731945
LeftToes  1.45487e-011 -6.19069e-011 1.65092e-011
